:FULLY-SPECIFIED
:FORCE-ALL-JOINTS-BE-3DOF
:DEGREES
34
root 5.95809 16.8941 -28.0886 10.0439 -1.70098 -2.10875
lfemur -20.3311 1.4493 -19.8233
ltibia 34.0214 -0 0
lfoot -35.6297 4.26534 0.000955502
ltoes 35.5576 -0 0
rfemur -17.1476 5.86321 19.4664
rtibia 30.9573 -0 0
rfoot -27.4025 -18.0071 -0.0215134
rtoes 12.25 -0 0
lowerback -5.38357 2.43534 -0.702045
upperback -1.83674 3.28051 0.497105
thorax 1.03223 1.63957 1.0957
lowerneck -9.53249 -1.60618 2.85551
upperneck -2.81598 -2.42266 0.918918
head 0.683355 -1.21646 -0.273008
lclavicle 2.28274e-14 6.3521e-15 -1.64244e-30
lhumerus -41.4423 -12.8649 96.7938
lradius 39.6934 -0 0
lwrist 6.19109 0 0
lhand -11.7904 4.08341 0.00641393
lfingers 7.12502 -0 0
lthumb 14.259 33.5734 0.00608548
rclavicle 2.28274e-14 6.3521e-15 -1.64244e-30
rhumerus -40.5042 -5.05845 -89.1774
rradius 39.0509 -0 0
rwrist 10.8847 0 0
rhand -26.4357 -20.5058 -0.00500559
rfingers 7.12502 -0 0
rthumb 0.12491 -50.4838 -0.00479767
35
root 5.95117 16.8955 -28.0874 10.0689 -1.68107 -2.08553
lfemur -20.3301 1.42858 -19.8192
ltibia 33.9752 -0 0
lfoot -35.5563 4.27331 0.000763312
ltoes 35.4751 -0 0
rfemur -17.0909 6.00021 19.4679
rtibia 30.834 -0 0
rfoot -27.3303 -18.1894 -0.0171858
rtoes 12.0267 -0 0
lowerback -5.46555 2.40853 -0.595979
upperback -1.81548 3.23923 0.42414
thorax 1.11578 1.6185 0.965655
lowerneck -9.5247 -1.58773 2.87759
upperneck -2.85033 -2.39995 0.981068
head 0.671753 -1.20469 -0.256001
lclavicle 2.37833e-14 7.40396e-15 -1.3121e-30
lhumerus -41.434 -12.9145 96.7196
lradius 39.8193 -0 0
lwrist 6.28858 0 0
lhand -11.8194 3.94815 0.00512404
lfingers 7.12502 -0 0
lthumb 14.231 33.4402 0.00486164
rclavicle 2.37833e-14 7.40396e-15 -1.3121e-30
rhumerus -40.4368 -5.06028 -89.2966
rradius 39.0162 -0 0
rwrist 10.9087 0 0
rhand -26.4998 -20.458 -0.00399876
rfingers 7.12502 -0 0
rthumb 0.0630329 -50.4364 -0.00383266
36
root 5.94499 16.8968 -28.0864 10.0912 -1.66331 -2.0648
lfemur -20.3293 1.41009 -19.8155
ltibia 33.9339 -0 0
lfoot -35.4908 4.28042 0.000583164
ltoes 35.4015 -0 0
rfemur -17.0403 6.12249 19.4692
rtibia 30.724 -0 0
rfoot -27.2659 -18.3521 -0.0131296
rtoes 11.8274 -0 0
lowerback -5.53875 2.38472 -0.501283
upperback -1.79646 3.20241 0.359009
thorax 1.1904 1.59985 0.849562
lowerneck -9.51775 -1.57127 2.8973
upperneck -2.88097 -2.37965 1.03652
head 0.661401 -1.19418 -0.240825
lclavicle 2.46365e-14 8.34275e-15 -1.00245e-30
lhumerus -41.4266 -12.9588 96.6534
lradius 39.9316 -0 0
lwrist 6.37558 0 0
lhand -11.8453 3.8274 0.00391472
lfingers 7.12502 -0 0
lthumb 14.2061 33.3213 0.00371424
rclavicle 2.46365e-14 8.34275e-15 -1.00245e-30
rhumerus -40.3766 -5.06178 -89.403
rradius 38.9854 -0 0
rwrist 10.9302 0 0
rhand -26.5569 -20.4153 -0.00305501
rfingers 7.12502 -0 0
rthumb 0.00780853 -50.394 -0.00292811
37
root 5.93961 16.8979 -28.0854 10.1106 -1.64785 -2.04675
lfemur -20.3286 1.394 -19.8122
ltibia 33.8979 -0 0
lfoot -35.4337 4.28661 0.000419701
ltoes 35.3375 -0 0
rfemur -16.9962 6.22895 19.4705
rtibia 30.6282 -0 0
rfoot -27.2099 -18.4937 -0.00944923
rtoes 11.6539 -0 0
lowerback -5.60252 2.3641 -0.418815
upperback -1.77987 3.17037 0.302297
thorax 1.25539 1.58374 0.748468
lowerneck -9.51169 -1.55694 2.91445
upperneck -2.90763 -2.36195 1.0848
head 0.652391 -1.18503 -0.227613
lclavicle 2.53794e-14 9.16009e-15 -7.21469e-31
lhumerus -41.42 -12.9973 96.5958
lradius 40.0294 -0 0
lwrist 6.45133 0 0
lhand -11.8678 3.72228 0.00281742
lfingers 7.12502 -0 0
lthumb 14.1844 33.2178 0.00267314
rclavicle 2.53794e-14 9.16009e-15 -7.21469e-31
rhumerus -40.3243 -5.06301 -89.4957
rradius 38.9585 -0 0
rwrist 10.9488 0 0
rhand -26.6067 -20.3781 -0.00219867
rfingers 7.12502 -0 0
rthumb -0.0402704 -50.3572 -0.00210735
